<?xml version="1.0" standalone="no"?>
<!DOCTYPE svg PUBLIC "-//W3C//DTD SVG 20010904//EN"
 "http://www.w3.org/TR/2001/REC-SVG-20010904/DTD/svg10.dtd">
<svg version="1.0" xmlns="http://www.w3.org/2000/svg"
 width="64.000000pt" height="64.000000pt" viewBox="0 0 64.000000 64.000000"
 preserveAspectRatio="xMidYMid meet">
<metadata>Masked tab icon</metadata>
<g transform="translate(0.000000,64.000000) scale(0.100000,-0.100000)"
fill="#000000" stroke="none">
<path d="M120 560 c-19 -19 -20 -33 -20 -240 0 -207 1 -221 20 -240 19 -19 33
-20 200 -20 167 0 181 1 200 20 19 19 20 33 20 240 0 207 -1 221 -20 240 -19
19 -33 20 -200 20 -167 0 -181 -1 -200 -20z"/>
<path d="M205 420 c-11 -18 5 -30 40 -30 l35 0 0 -110 c0 -91 3 -110 15 -110
12 0 15 19 15 110 l0 110 35 0 c35 0 51 12 40 30 -4 6 -43 10 -90 10 -47 0
-86 -4 -90 -10z"/>
</g>
</svg>
